<svg xmlns="http://www.w3.org/2000/svg" viewBox="0 0 829.96 199.13">
  <defs>
    <style>
      .a {
        fill: #f2f2f2;
      }
    </style>
  </defs>
  <title>B_Admin</title>
  <g>
    <path class="a" d="M232.56,5.33l-51.17,193.8H158.48L209.64,5.33Z"/>
    <g>
      <path class="a" d="M330,12.94l25,138.58,15.41,3.16-.69,8.59H318.79l.49-8.59,15.41-2.87-4.94-31.5h-56l-14.82,31.41,15.81,3-.6,8.59H227.23l.88-8.59,11.76-2.87L309.7,12.94Zm-2.07,95.32L317.6,41.48l-1.08-11.95-37.14,78.73Z"/>
      <path class="a" d="M382.53,88.38A76.05,76.05,0,0,1,405,59.78,53.15,53.15,0,0,1,438.78,48.3a63.84,63.84,0,0,1,13.53,1.78l5-33.29L445,12.54l2.07-8.19L473.84.2l5.24,2.66-20.55,140c-.13,1.3-.19,2.21-.19,2.73q0,4.68,2.37,4.68a7.92,7.92,0,0,0,3.35-.95,33.41,33.41,0,0,0,5.24-3.45l3.06,5.1a24.89,24.89,0,0,1-4.39,4.74,37.07,37.07,0,0,1-8,5.33,21.29,21.29,0,0,1-9.72,2.37q-6.23,0-9.29-3.24t-2.86-10.32l-.1-2.25a46.27,46.27,0,0,1-13.39,11.29,34.3,34.3,0,0,1-17.23,4.52q-10.77,0-18.13-5.35a31.71,31.71,0,0,1-11-14.78,61.21,61.21,0,0,1-3.61-21.89Q374.67,105.5,382.53,88.38ZM450,64.56q-4.95-4.11-14.23-4.11A29.65,29.65,0,0,0,413.54,70,59.42,59.42,0,0,0,400,93.54a89.6,89.6,0,0,0-4.44,27.13q0,14.08,4.14,21.83T411,150.23A28.36,28.36,0,0,0,426.88,145a48.42,48.42,0,0,0,12.69-12Z"/>
      <path class="a" d="M565.39,79.33q0-6.83-1.19-10.09T560.84,65a16,16,0,0,0-6.12-.94q-7.32,0-16.65,6.83a74.07,74.07,0,0,0-16.74,17.3l-10.17,75H491.4l12.84-95.13-9.77-5.91,1.77-8.79,24.4-5.14,4.74,2.37-1.87,21a74.4,74.4,0,0,1,19-16.91Q553,48.31,563.61,48.3q9.87,0,15.41,5.7t6.42,18.88a72.19,72.19,0,0,1,18.32-17.74q10.32-6.84,20.79-6.84T641,55.62q6.07,7.31,6.07,22.54A89.45,89.45,0,0,1,646.18,90q-.88,6.57-2.67,17.55-.39,2-1,5.73-1.78,10.88-2.72,17.75t-1.43,13.69l-.1,2.18q0,5.24,2.17,5.23a8.46,8.46,0,0,0,4.1-1.33,45.67,45.67,0,0,0,6.57-5.09l3.06,5.23a29.48,29.48,0,0,1-4.94,4.82A40.38,40.38,0,0,1,640.6,161,25,25,0,0,1,630,163.37q-6.32,0-9.33-3.06t-2.72-9.68q.3-6.31,1.29-13.7t2.86-19.26l.79-4.76q1.88-10.69,2.91-18.81a118.18,118.18,0,0,0,1-15.12q0-6.51-1.28-9.77c-.86-2.17-2-3.57-3.36-4.18a13.1,13.1,0,0,0-5.33-.93q-7,0-15.61,6.64a80.74,80.74,0,0,0-16,16.94q-1,11.79-3.06,25.56l-6.32,50H555.8l5.54-43.8Q565.39,94.56,565.39,79.33Z"/>
      <path class="a" d="M673.13,59.56l1.78-8,30.22-5L710,48.89l-13.73,93.84a19.42,19.42,0,0,0-.2,3.06c0,3,.83,4.44,2.47,4.44a8.71,8.71,0,0,0,4.15-1.43,37.21,37.21,0,0,0,6.32-5.08l3.16,5.33a35.51,35.51,0,0,1-5,5.48,39.33,39.33,0,0,1-8.74,6.12,22.41,22.41,0,0,1-10.66,2.72q-12.56,0-12.55-11.46l.1-1.67q.5-6.42,1.78-15.46t4.34-28.9q4.65-30.61,6.13-41.18ZM694,7.56a17.26,17.26,0,0,1,5.53-5.49A12.72,12.72,0,0,1,706.22,0a12.34,12.34,0,0,1,8.89,3.21,10.47,10.47,0,0,1,3.35,7.85,14.69,14.69,0,0,1-2.07,7.51,15.9,15.9,0,0,1-5.58,5.68,14.12,14.12,0,0,1-7.46,2.12A11.09,11.09,0,0,1,695.2,23a11.1,11.1,0,0,1-3.4-8.14A13.25,13.25,0,0,1,694,7.56Z"/>
      <path class="a" d="M734.05,62.29l1.78-8.83,24.4-5.16L765,50.67l-2,21a74.3,74.3,0,0,1,19-16.91q10.61-6.48,21.18-6.49,10.88,0,16.65,6.92t5.77,22.93a82.92,82.92,0,0,1-1,12.21q-1,6.87-2.92,17-.88,4.55-1.08,6-2,11.18-3,18a128.39,128.39,0,0,0-1.33,13.44,18.86,18.86,0,0,0-.1,2.28,11,11,0,0,0,.5,3.85,1.71,1.71,0,0,0,1.67,1.29q3,0,8.6-4.54L830,152.9a21.3,21.3,0,0,1-4.4,3.95,38.45,38.45,0,0,1-8.19,4.53,25.63,25.63,0,0,1-9.93,2q-6.53,0-9.68-3.1T795,150.38q.3-5.32,1.34-11.92t2.91-16.68l.59-3.39q.1-.67,1.09-5.72,2.18-11.53,3.31-19.24A98.79,98.79,0,0,0,805.37,79c0-4.46-.45-7.75-1.34-9.89A7,7,0,0,0,800.48,65a16.86,16.86,0,0,0-6.28-.93q-7.31,0-16.64,6.83a74.07,74.07,0,0,0-16.74,17.3l-10.18,75H730.89l12.84-95.13Z"/>
    </g>
    <path class="a" d="M0,150.55V165H69.29q68.5,0,68.51-48.78c0-7.74-1.89-14.34-5.65-19.9a35.29,35.29,0,0,0-15.85-12.7,58,58,0,0,0-20.86-4.3.29.29,0,0,1,0-.58,43.43,43.43,0,0,0,14.79-6,35.91,35.91,0,0,0,12.14-13.13,37.88,37.88,0,0,0,4.39-18.37q0-11.61-5.49-19.29T102.6,10.12Q89.48,6,66.88,6H.23V21.8l16.13,2.84V147.87Z"/>
  </g>
</svg>
