<?xml version='1.0' encoding='utf-8'?>
<svg xmlns="http://www.w3.org/2000/svg" width="150" height="150" viewBox="0 0 150 150">
  <path d="M139.05,110.65c-9.55,21 -48.19,33.45 -64.05,33.45s-54.5,-12.45 -64.05,-33.45C3.16,93.55 22.89,68.57 22.89,58a52.11,52.11 0,1 1,104.23 0C127.11,68.57 146.84,93.55 139.05,110.65Z" fill="#b7b4b3" stroke="#000" stroke-width="4" />
  <path d="M94.56,96.75c-9.84,-4.34 -18.92,-8.41 -21.27,-12.06C70.94,88.33 61.85,92.41 52,96.75c0.68,0.76 9.52,14.34 21.27,14.35h0C85,111.09 93.87,97.5 94.56,96.75Z" fill="#7a5342" stroke="#000" stroke-width="2" stroke-linecap="round" />
  <path d="M106.36,76.02a6.06,10.78 0,1 0,12.12 0a6.06,10.78 0,1 0,-12.12 0z" fill="#c9c9c9" stroke="#000" stroke-width="2" />
  <path d="M31.52,76.02a6.06,10.78 0,1 0,12.12 0a6.06,10.78 0,1 0,-12.12 0z" fill="#c9c9c9" stroke="#000" stroke-width="2" />
  <path d="M94.52,96.08c-9.82,3.9 -18.89,7.15 -21.23,10.43C70.95,103.22 61.87,100 52,96.08c0.68,-0.68 9.5,-13.32 21.23,-13.33h0C85,82.76 93.84,95.4 94.52,96.08Z" fill="#4c3e38" stroke="#000" stroke-width="2" stroke-linecap="round" />
  <path d="M106.62,77.02a4.8,8.54 0,1 0,9.6 0a4.8,8.54 0,1 0,-9.6 0z" fill="#000000" fill-opacity="1.0" />
  <path d="M33.78,77.02a4.8,8.54 0,1 0,9.6 0a4.8,8.54 0,1 0,-9.6 0z" fill="#000000" fill-opacity="1.0" />
  <path d="M138.72,104.26a18,18 0,0 1,-1.49 5.56c-9,19.71 -45.9,32.28 -62.23,32.28s-53.27,-12.57 -62.23,-32.28a18,18 0,0 1,-1.49 -5.56c15.91,11.6 38.57,18.85 63.72,18.85S122.81,115.86 138.72,104.26Z" fill="#9b9998" />
</svg>