<?xml version='1.0' encoding='utf-8'?>
<svg xmlns="http://www.w3.org/2000/svg" width="150" height="150" viewBox="0 0 150 150">
  <path d="M81.06,48.54c-6.11,25.87 -4,48.51 4.8,50.57S109.3,66.37 112.78,56s4,-48.51 -4.8,-50.57S87.16,22.67 81.06,48.54Z" fill="#acb3ba" stroke="#000" stroke-width="4" />
  <path d="M68.94,48.54c6.11,25.87 4,48.51 -4.8,50.57S40.7,66.37 37.22,56 33.27,7.5 42,5.44 62.84,22.67 68.94,48.54Z" fill="#acb3ba" stroke="#000" stroke-width="4" />
  <path d="M110.88,55.38A185.48,185.48 0,0 1,99.77 80.89C98,61.93 102.49,33.78 108.45,8a6.51,6.51 0,0 1,1 1.41C114.48,18.39 113.59,47.3 110.88,55.38Z" fill="#72767a" />
  <path d="M50.23,80.89A185.48,185.48 0,0 1,39.12 55.38c-2.71,-8.08 -3.6,-37 1.41,-46a6.51,6.51 0,0 1,1 -1.41C47.51,33.78 52,61.93 50.23,80.89Z" fill="#72767a" />
  <path d="M75,144.71c-26.05,0 -54,-20.33 -42.45,-47.51C42.93,72.88 48.95,49.68 75,49.68s32.07,23.2 42.45,47.51C129,124.38 101.05,144.71 75,144.71Z" fill="#d1d1d1" stroke="#000" stroke-width="4" />
  <path d="M118,112.37a26,26 0,0 1,-4.3 11.7c-7.36,11.15 -22.91,18.64 -38.68,18.64s-31.32,-7.49 -38.68,-18.64a26,26 0,0 1,-4.3 -11.7c11.89,-5.74 26.8,-9 43,-9S106.09,106.63 118,112.37Z" fill="#acb3ba" />
  <path d="M87.91,90.64a7.27,7.7 0,1 0,14.54 0a7.27,7.7 0,1 0,-14.54 0z" fill="#fff" stroke="#000" stroke-width="1" />
  <path d="M88.69,90.64a4.49,4.75 0,1 0,8.98 0a4.49,4.75 0,1 0,-8.98 0z" fill="#000000" fill-opacity="1.0" />
  <path d="M47.55,90.64a7.27,7.7 0,1 0,14.54 0a7.27,7.7 0,1 0,-14.54 0z" fill="#fff" stroke="#000" stroke-width="1" />
  <path d="M52.33,90.64a4.49,4.75 0,1 0,8.98 0a4.49,4.75 0,1 0,-8.98 0z" fill="#000000" fill-opacity="1.0" />
  <path d="M75,121.87v5a3,3 0,0 1,-3 3h-0.39a3,3 0,0 1,-3 -3V124" fill="#fff" stroke="#000" stroke-width="1" />
  <path d="M75,120.87v6a3,3 0,0 0,3 3h0.39a3,3 0,0 0,3 -3V124" fill="#fff" stroke="#000" stroke-width="1" />
  <path d="M61.07,122.89C64.75,126 75,123 75,120.45" fill="#000000" fill-opacity="0.0" stroke="#000" stroke-width="1" stroke-linecap="round" stroke-linejoin="round" />
  <path d="M88.93,122.89C85.25,126 75,123 75,120.45" fill="#000000" fill-opacity="0.0" stroke="#000" stroke-width="1" stroke-linecap="round" stroke-linejoin="round" />
  <path d="M83,115c-0.05,4.44 -6.4,5.43 -8.11,5.41s-8,-1.15 -8,-5.6 3.75,-13.09 8.2,-13S83.06,110.59 83,115Z" fill="#6b6e70" stroke="#000" stroke-width="2" />
</svg>