<?xml version='1.0' encoding='utf-8'?>
<svg xmlns="http://www.w3.org/2000/svg" width="150" height="150" viewBox="0 0 150 150">
  <path d="M64.92,16.38c0.33,4.43 0.6,11.63 -0.75,16.52 -2.06,7.52 -10,0.29 -10,0.29a82.49,82.49 0,0 1,2.46 -17.7,6.06 6.06,0 1,1 8.28,0.89Z" fill="#b57210" stroke="#000" stroke-width="2" />
  <path d="M85.08,16.38c-0.33,4.43 -0.6,11.63 0.75,16.52 2.06,7.52 10,0.29 10,0.29a82.49,82.49 0,0 0,-2.46 -17.7,6.06 6.06,0 1,0 -8.28,0.89Z" fill="#b57210" stroke="#000" stroke-width="2" />
  <path d="M58.52,145.5l0,-36.41l33.15,0l0,36.41" fill="#e89c05" stroke="#000" stroke-width="4" />
  <path d="M98.67,52.17c13.39,-24.71 30.46,-28 40.94,-21.44 9.4,5.92 -22.42,40.34 -40.94,21.44" fill="#e89c05" stroke="#000" stroke-width="4" />
  <path d="M51.33,52.17c-13.39,-24.71 -30.46,-28 -40.94,-21.44C1,36.65 32.81,71.07 51.33,52.17" fill="#e89c05" stroke="#000" stroke-width="4" />
  <path d="M108.07,66.3c-0.87,11.7 -14.48,40.86 -18.89,44.45S75,114.33 75,114.33s-9.77,0 -14.18,-3.59S42.8,78 41.93,66.3s4.7,-19.36 6.43,-22.53 0,-13.11 4.6,-16.06 15.14,3.8 22,3.8 17.44,-6.76 22,-3.8 2.87,12.89 4.6,16.06S108.94,54.61 108.07,66.3Z" fill="#e89c05" stroke="#000" stroke-width="4" />
  <path d="M106.08,66.15c-0.86,11.44 -14.54,40.1 -18.16,43a8.78,8.78 0,0 1,-1.67 1,27.08 27.08,0 0,1 -1,-6.52c-1.66,-29.11 4,-49.38 18,-52.78A30.63,30.63 0,0 1,106.08 66.15Z" fill="#fff1ce" />
  <path d="M64.73,104.22a29.85,29.85 0,0 1,-0.84 6.07,8.63 8.63,0 0,1 -1.81,-1.1c-3.62,-2.94 -17.3,-31.6 -18.16,-43a30.35,30.35 0,0 1,2.61 -14.76C60.69,54.65 66.4,75 64.73,104.22Z" fill="#fff1ce" />
  <path d="M92.44,114.33c0,6.4 -11.79,17.11 -17.44,17.11s-17.44,-10.71 -17.44,-17.11S59.67,86.66 75,86.66 92.44,107.93 92.44,114.33Z" fill="#795f54" stroke="#000" stroke-width="4" />
  <path d="M99.76,64.45m-3.45,0a3.45,3.45 0,1 1,6.9 0a3.45,3.45 0,1 1,-6.9 0" fill="#000000" fill-opacity="1.0" />
  <path d="M50.43,64.45m-3.45,0a3.45,3.45 0,1 1,6.9 0a3.45,3.45 0,1 1,-6.9 0" fill="#000000" fill-opacity="1.0" />
  <path d="M70.15,101.55m-2.71,0a2.71,2.71 0,1 1,5.42 0a2.71,2.71 0,1 1,-5.42 0" fill="#232323" />
  <path d="M79.85,101.55m-2.71,0a2.71,2.71 0,1 1,5.42 0a2.71,2.71 0,1 1,-5.42 0" fill="#232323" />
  <path d="M65.27,138.75a6.75,6.75 0,0 1,-4.75 6.45V132.3A6.75,6.75 0,0 1,65.27 138.75Z" fill="#c66700" />
  <path d="M89.67,132.3v12.9a6.75,6.75 0,0 1,0 -12.9Z" fill="#c66700" />
</svg>