<?xml version='1.0' encoding='utf-8'?>
<svg xmlns="http://www.w3.org/2000/svg" width="150" height="150" viewBox="0 0 150 150">
  <path d="M76.33,137.56c-0.44,0 -0.89,0 -1.33,0s-0.89,0 -1.33,0c-37.34,0 -62.68,-23 -60.23,-51.56 3,-35 22,-79.33 60.23,-79.33h2.66C114.56,6.67 133.56,51 136.56,86 139,114.6 113.67,137.56 76.33,137.56Z" fill="#0980aa" stroke="#000" stroke-width="4" stroke-linecap="round" />
  <path d="M106.32,97.27c2.73,28.35 -11.62,19.09 -30,19.09s-32.72,9.27 -30,-19.09c2.31,-24 6.17,-40.87 30,-40.87S104,73.29 106.32,97.27Z" fill="#083a47" />
  <path d="M106.49,103.51c2.91,15 -11.58,39.83 -30.16,39.83s-33.07,-24.85 -30.16,-39.83c2.44,-12.55 6.37,3.28 30.16,3.28S104.06,91 106.49,103.51Z" fill="#73bbd8" stroke="#000" stroke-width="4" stroke-linecap="round" />
  <path d="M106.65,92.91c4,46 -13.93,-7.4 -30.32,-7.4S42,138.92 46,92.91C49.17,56.5 54.1,23.69 76.33,23.69S103.49,56.5 106.65,92.91Z" fill="#73bbd8" stroke="#000" stroke-width="4" stroke-linecap="round" />
  <path d="M36.45,59.64a15.79,9.86 105,1 0,8.17 -30.5a15.79,9.86 105,1 0,-8.17 30.5z" fill="#86d9e2" stroke="#000" stroke-width="2" stroke-linecap="round" />
  <path d="M38.69,58.06a11.05,6.9 105,1 0,5.72 -21.35a11.05,6.9 105,1 0,-5.72 21.35z" fill="#000000" fill-opacity="1.0" />
  <path d="M103.06,47a15.86,9.9 75,1 0,19.13 -5.13a15.86,9.9 75,1 0,-19.13 5.13z" fill="#86d9e2" stroke="#000" stroke-width="2" stroke-linecap="round" />
  <path d="M104.45,49.18a11.05,6.9 75,1 0,13.33 -3.57a11.05,6.9 75,1 0,-13.33 3.57z" fill="#000000" fill-opacity="1.0" />
  <path d="M117.83,112.18a5.44,2.69 102.68,1 0,2.39 -10.61a5.44,2.69 102.68,1 0,-2.39 10.61z" fill="#0d5f75" />
  <path d="M124.88,94.42a4.34,2.14 88.57,1 0,4.28 -0.11a4.34,2.14 88.57,1 0,-4.28 0.11z" fill="#0d5f75" />
  <path d="M114.63,91.7a3.48,2.14 70.86,1 0,4.04 -1.4a3.48,2.14 70.86,1 0,-4.04 1.4z" fill="#0d5f75" />
  <path d="M28.32,107.48a5.42,2.68 77.32,1 0,5.23 -1.18a5.42,2.68 77.32,1 0,-5.23 1.18z" fill="#0d5f75" />
  <path d="M22.86,98.75a4.32,2.14 91.43,1 0,0.22 -8.64a4.32,2.14 91.43,1 0,-0.22 8.64z" fill="#0d5f75" />
  <path d="M32.2,94.29a3.48,2.14 109.14,1 0,2.28 -6.58a3.48,2.14 109.14,1 0,-2.28 6.58z" fill="#0d5f75" />
  <path d="M75,39.3c-0.65,3.68 -2.72,6.4 -4.62,6.07s-4.47,-0.45 -3.82,-4.14S70.8,31.68 72.7,32 75.62,35.61 75,39.3Z" fill="#000000" fill-opacity="1.0" />
  <path d="M77.7,39.3c0.65,3.68 2.72,6.4 4.62,6.07s4.47,-0.45 3.82,-4.14S81.87,31.68 80,32 77.05,35.61 77.7,39.3Z" fill="#000000" fill-opacity="1.0" />
</svg>