<?xml version='1.0' encoding='utf-8'?>
<svg xmlns="http://www.w3.org/2000/svg" width="150" height="150" viewBox="0 0 150 150">
  <path d="M123.41,84.14A102.23,102.23 0,0 1,122 72.33L121.9,70c-0.46,-8 -1.31,-22.8 -2.83,-36 -2.51,-21.74 -5.23,-24.61 -5.75,-25 -2.11,0.18 -7.21,5.86 -13.52,26.22l-0.12,0.39c-0.07,0.21 -0.13,0.43 -0.19,0.66 -1.38,5 -4.4,9.86 -24.39,9.9h-0.21c-20,0 -23,-4.91 -24.38,-9.9 -0.06,-0.23 -0.12,-0.45 -0.19,-0.66l-0.12,-0.39C43.89,14.87 38.79,9.19 36.68,9c-0.52,0.35 -3.24,3.22 -5.75,25 -1.52,13.21 -2.37,28 -2.83,36L28,72.33a102.23,102.23 0,0 1,-1.38 11.81c-0.81,4.86 -1.44,8.69 -0.54,18.5 1.31,14.28 42.09,38 49,38.35 6.86,-0.39 47.64,-24.07 49,-38.35C124.85,92.83 124.22,89 123.41,84.14ZM107.73,106.72c-8.35,2.52 -17.5,29.53 -32.49,29.7 -15,-0.17 -24.13,-27.18 -32.48,-29.7C36.94,105 31,102.12 31.23,98.34c0.52,-11.44 3.12,-33.08 5.28,-34.19 16.45,-8.48 31,-3.61 35,45.81L79,109.96c4,-49.42 18.51,-54.29 35,-45.81 2.15,1.11 4.76,22.75 5.28,34.19C119.43,102.12 113.55,105 107.73,106.72Z" fill="#40586a" />
  <path d="M125.94,102.82c-1.45,15.8 -44,39.94 -50.94,40.18 -6.92,-0.24 -49.5,-24.38 -50.94,-40.18 -1.48,-16.1 1.09,-16.59 1.92,-30.6S29.36,7 36.57,7 51.2,31.73 52.23,35s1,9.11 22.67,9.15h0.21c21.64,0 21.64,-5.86 22.67,-9.15s8.45,-28 15.66,-28S123.2,58.2 124,72.22 127.42,86.71 125.94,102.82Z" fill="#d3dae0" stroke="#000" stroke-width="4" />
  <path d="M123.41,84.14A102.23,102.23 0,0 1,122 72.33L121.9,70c-0.46,-8 -1.31,-22.8 -2.83,-36 -2.51,-21.74 -5.23,-24.61 -5.75,-25 -2.11,0.18 -7.21,5.86 -13.52,26.22l-0.12,0.39c-0.07,0.21 -0.13,0.43 -0.19,0.66 -1.38,5 -4.4,9.86 -24.39,9.9h-0.21c-20,0 -23,-4.91 -24.38,-9.9 -0.06,-0.23 -0.12,-0.45 -0.19,-0.66l-0.12,-0.39C43.89,14.87 38.79,9.19 36.68,9c-0.52,0.35 -3.24,3.22 -5.75,25 -1.52,13.21 -2.37,28 -2.83,36L28,72.33a102.23,102.23 0,0 1,-1.38 11.81c-0.81,4.86 -1.44,8.69 -0.54,18.5 1.31,14.28 42.09,38 49,38.35 6.86,-0.39 47.64,-24.07 49,-38.35C124.85,92.83 124.22,89 123.41,84.14ZM107.73,106.72c-8.35,2.52 -17.5,29.53 -32.49,29.7 -15,-0.17 -24.13,-27.18 -32.48,-29.7C36.94,105 31,102.12 31.23,98.34c0.52,-11.44 3.12,-33.08 5.28,-34.19 16.45,-8.48 31,-3.61 35,45.81L79,109.96c4,-49.42 18.51,-54.29 35,-45.81 2.15,1.11 4.76,22.75 5.28,34.19C119.43,102.12 113.55,105 107.73,106.72Z" fill="#40586a" />
  <path d="M75,143h-0.1" fill="#000000" fill-opacity="0.0" stroke="#000" stroke-width="1" />
  <path d="M75.1,143H75" fill="#000000" fill-opacity="0.0" stroke="#000" stroke-width="1" />
  <path d="M43.45,46c10.39,-3 -2.35,-28.34 -4.72,-32.15C34.3,20.67 28,50.55 43.45,46Z" fill="#8095a0" />
  <path d="M106.36,46c-10.39,-3 2.76,-28.34 5.13,-32.15C115.92,20.67 121.84,50.55 106.36,46Z" fill="#8095a0" />
  <path d="M85.41,111.33c0,4.32 -6.76,9.83 -10.41,9.83s-10.41,-5.51 -10.41,-9.83S69.25,105.5 75,105.5 85.41,107 85.41,111.33Z" fill="#001723" stroke="#000" stroke-width="2" stroke-linecap="round" stroke-linejoin="round" />
  <path d="M75,127.48L75,121.64" fill="#000000" fill-opacity="0.0" stroke="#000" stroke-width="3" stroke-linecap="round" stroke-linejoin="round" />
  <path d="M83,125.46c0,2.43 -3.59,3.4 -8,3.4s-8,-1 -8,-3.4" fill="#000000" fill-opacity="0.0" stroke="#000" stroke-width="3" stroke-linecap="round" stroke-linejoin="round" />
  <path d="M100.48,71.35c1.27,3.71 -2.21,10.82 -5.92,12.09a7.09,7.09 0,0 1,-9 -4.41c-0.73,-2.14 1.87,-5.44 3.87,-6.88C93.28,69.37 99.2,67.64 100.48,71.35Z" fill="#e8e6ac" stroke="#000" stroke-width="2" />
  <path d="M91.81,74.99m-3.15,0a3.15,3.15 0,1 1,6.3 0a3.15,3.15 0,1 1,-6.3 0" fill="#000000" fill-opacity="1.0" />
  <path d="M49.52,71.35c-1.27,3.71 2.21,10.82 5.92,12.09a7.09,7.09 0,0 0,9 -4.41c0.73,-2.14 -1.87,-5.44 -3.87,-6.88C56.72,69.37 50.8,67.64 49.52,71.35Z" fill="#e8e6ac" stroke="#000" stroke-width="2" />
  <path d="M58.19,74.99m-3.15,0a3.15,3.15 0,1 1,6.3 0a3.15,3.15 0,1 1,-6.3 0" fill="#000000" fill-opacity="1.0" />
</svg>