<?xml version='1.0' encoding='utf-8'?>
<svg xmlns="http://www.w3.org/2000/svg" width="150" height="150" viewBox="0 0 150 150">
  <path d="M16.22,39.63a24.09,19.27 80.16,1 0,37.97 -6.59a24.09,19.27 80.16,1 0,-37.97 6.59z" fill="#b26f2d" stroke="#000" stroke-width="4" />
  <path d="M39.67,51.53a8.45,8.45 0,0 1,-1.42 0.38C32.07,53 25.59,46.81 24.1,38.39c-1.37,-7.78 1.74,-15.16 7.25,-17.17a8.45,8.45 0,0 1,1.42 -0.38,10.11 10.11,0 0,1 8.42,2.77 18.53,18.53 0,0 1,5.73 10.75C48.29,42.15 45.17,49.53 39.67,51.53Z" fill="#d8985d" />
  <path d="M110.29,60.23a24.22,19.37 100,1 0,8.41 -47.7a24.22,19.37 100,1 0,-8.41 47.7z" fill="#b26f2d" stroke="#000" stroke-width="4" />
  <path d="M113.22,52a8.45,8.45 0,0 1,-1.46 -0.13c-6.18,-1.09 -10.15,-9.13 -8.67,-17.55 1.37,-7.78 6.82,-13.65 12.68,-13.65a8.45,8.45 0,0 1,1.46 0.13,10.11 10.11,0 0,1 7,5.48 18.53,18.53 0,0 1,1.71 12.06C124.53,46.17 119.07,52 113.22,52Z" fill="#d8985d" />
  <path d="M27.26,100.24c-15,-24.37 1.22,-74 24,-79C55.67,8.63 71.37,8.4 71.37,8.4 68.33,14.08 69,18.48 69,18.48c6.8,-8.2 18.28,-7 18.28,-7 -0.7,7.58 16.64,8.67 27.07,20.74s19.1,28.48 12.19,59.53c-3,-6 -6.21,-6.09 -6.21,-6.09 -0.47,23 -21.91,51.18 -38.44,55.4 0.79,-9.92 -1.76,-13.24 -3.75,-14.41 0.94,5.86 -2.71,11.6 -2.71,11.6 -30.46,-7.27 -40,-21.68 -42.34,-51.09C27.77,95.08 27.26,100.24 27.26,100.24Z" fill="#dd852f" stroke="#000" stroke-width="4" />
  <path d="M58.65,105.75a16.81,11 0,1 0,33.62 0a16.81,11 0,1 0,-33.62 0z" fill="#f2c497" stroke="#000" stroke-width="2" />
  <path d="M119.82,64c0,7.65 -1.95,10.4 -8.32,17S96,94.88 77.3,94.88H75.64c-18.69,0 -27.83,-7.27 -34.2,-13.86s-8.32,-9.34 -8.32,-17c0,-14.77 15.12,-33.53 39.52,-33.53 0.28,0 3.55,4.09 3.83,4.1S80,30.5 80.3,30.5C104.7,30.5 119.82,49.26 119.82,64Z" fill="#f2c497" />
  <path d="M102.47,91.66c0,11 -8.81,23.17 -26.84,12.56 -18,10.61 -26.84,-1.53 -26.84,-12.56s8.81,-20 26.84,-20S102.47,80.62 102.47,91.66Z" fill="#efdfc4" stroke="#000" stroke-width="2" />
  <path d="M65.44,60.72c-0.86,4.88 -6,7.74 -11.24,6.82S45.09,64 46.32,57c0.86,-4.88 5.22,-4.9 10.43,-4S66.3,55.84 65.44,60.72Z" fill="#fff" stroke="#000" stroke-width="2" />
  <path d="M87.67,60.72c0.86,4.88 6,7.74 11.24,6.82S108,64 106.79,57c-0.86,-4.88 -5.22,-4.9 -10.43,-4S86.81,55.84 87.67,60.72Z" fill="#fff" stroke="#000" stroke-width="2" />
  <path d="M59.4,59.81m-0.58,3.29a3.34,3.34 55,1 1,1.16 -6.58a3.34,3.34 55,1 1,-1.16 6.58" fill="#000000" fill-opacity="1.0" />
  <path d="M93.71,59.8m-3.29,0.58a3.34,3.34 125,1 1,6.58 -1.16a3.34,3.34 125,1 1,-6.58 1.16" fill="#000000" fill-opacity="1.0" />
  <path d="M84.7,77.64c0,3.73 -5.33,9.42 -9.07,9.42s-9.07,-5.68 -9.07,-9.42 5.33,-4.1 9.07,-4.1S84.7,73.91 84.7,77.64Z" fill="#4c331c" />
  <path d="M75.64,104.22L75.64,87.77" fill="#000000" fill-opacity="0.0" stroke="#000" stroke-width="2" stroke-linecap="round" />
  <path d="M83.33,90.9L95.14,85.09" fill="#000000" fill-opacity="0.0" stroke="#000" stroke-width="1" />
  <path d="M84.74,93.67L97.14,93.67" fill="#000000" fill-opacity="0.0" stroke="#000" stroke-width="1" />
  <path d="M83.33,96.43L95.14,102.24" fill="#000000" fill-opacity="0.0" stroke="#000" stroke-width="1" />
  <path d="M66.59,90.9L55.78,85.09" fill="#000000" fill-opacity="0.0" stroke="#000" stroke-width="1" />
  <path d="M65.19,93.67L53.78,93.67" fill="#000000" fill-opacity="0.0" stroke="#000" stroke-width="1" />
  <path d="M66.59,96.43L55.78,102.24" fill="#000000" fill-opacity="0.0" stroke="#000" stroke-width="1" />
</svg>